<?xml version="1.0" encoding="utf-8"?>
<!-- Generator: Adobe Illustrator 21.1.0, SVG Export Plug-In . SVG Version: 6.00 Build 0)  -->
<svg version="1.1" id="Layer_1" xmlns="http://www.w3.org/2000/svg" xmlns:xlink="http://www.w3.org/1999/xlink" x="0px" y="0px"
	 viewBox="0 0 659.6 92" style="enable-background:new 0 0 659.6 92;" xml:space="preserve">
<style type="text/css">
	.st0{fill:#3A4850;}
	.st1{fill:#0684C2;}
	.st2{fill:#10AB96;}
</style>
<path class="st0" d="M39.8,41.3L29.7,18.5l-9.4,22.8H39.8z M26.6,4.7h6.3L61.2,68H52l-8.4-18.6H16.7L8.8,68h-9.3L26.6,4.7z"/>
<path class="st0" d="M66.1,26.6h8.2V68h-8.2V26.6z M70.1,9.1c1.3,0,2.5,0.5,3.5,1.4s1.4,2.1,1.4,3.4c0,1.3-0.5,2.5-1.4,3.4
	c-1,1-2.1,1.4-3.5,1.4c-1.3,0-2.4-0.5-3.3-1.5c-1-1-1.4-2.1-1.4-3.4c0-1.3,0.5-2.4,1.4-3.4C67.8,9.6,68.9,9.1,70.1,9.1"/>
<rect x="84.1" y="5.1" class="st0" width="8.2" height="62.9"/>
<path class="st0" d="M108.1,43.1h20.8c-0.2-3.3-1.2-5.8-2.9-7.6s-4.1-2.7-7-2.7s-5.4,0.9-7.2,2.7C109.9,37.3,108.7,39.8,108.1,43.1
	 M137.1,48H108c0.2,4,1.5,7.1,4,9.5c2.4,2.3,5.6,3.5,9.5,3.5c5.4,0,10.4-1.7,14.9-5v8c-2.5,1.7-5,2.9-7.5,3.6s-5.4,1.1-8.7,1.1
	c-4.6,0-8.3-0.9-11.1-2.8s-5.1-4.4-6.8-7.6s-2.5-6.9-2.5-11.1c0-6.3,1.8-11.4,5.4-15.4c3.6-3.9,8.2-5.9,13.9-5.9
	c5.5,0,9.9,1.9,13.1,5.8c3.3,3.8,4.9,9,4.9,15.4L137.1,48L137.1,48z"/>
<path class="st0" d="M152.7,26.6v9.5l0.5-0.7c4-6.4,7.9-9.6,11.9-9.6c3.1,0,6.3,1.6,9.7,4.7l-4.3,7.2c-2.9-2.7-5.5-4.1-7.9-4.1
	c-2.6,0-4.9,1.3-6.9,3.8c-1.9,2.5-2.9,5.5-2.9,9V68h-8.2V26.6H152.7z"/>
<path class="st0" d="M197.8,33.9c-3.9,0-7.2,1.3-9.7,3.9c-2.5,2.6-3.8,5.9-3.8,9.9s1.3,7.2,3.9,9.7c2.6,2.5,5.9,3.8,10,3.8
	c4,0,7.3-1.3,9.9-3.8s3.9-5.8,3.9-9.7c0-3.9-1.3-7.2-4-9.8C205.2,35.2,201.9,33.9,197.8,33.9 M198.3,26.5c6.3,0,11.5,2,15.7,6.1
	s6.3,9.2,6.3,15.3c0,6-2.1,10.9-6.4,14.9c-4.2,3.9-9.6,5.9-16,5.9c-6.2,0-11.4-2-15.6-6c-4.2-4-6.3-9-6.3-15
	c0-6.1,2.1-11.1,6.3-15.2C186.6,28.5,191.9,26.5,198.3,26.5"/>
<path class="st0" d="M236,26.6v5.3c3.7-4.1,7.8-6.1,12.5-6.1c2.6,0,5,0.7,7.2,2s3.9,3.2,5.1,5.5s1.7,6,1.7,11.1V68h-8.2V44.4
	c0-4.2-0.6-7.3-1.9-9.1s-3.5-2.7-6.5-2.7c-3.9,0-7.2,1.9-9.9,5.8V68h-8.4V26.6H236z"/>
<path class="st0" d="M409.3,41.3l-10.2-22.8l-9.4,22.8H409.3z M396.1,4.7h6.3L430.6,68h-9.2L413,49.4h-26.8L378.3,68H369L396.1,4.7z
	"/>
<path class="st0" d="M435.5,26.6h8.2V68h-8.2V26.6z M439.6,9.1c1.3,0,2.5,0.5,3.5,1.4s1.4,2.1,1.4,3.4c0,1.3-0.5,2.5-1.4,3.4
	c-1,1-2.1,1.4-3.5,1.4c-1.3,0-2.4-0.5-3.3-1.5c-1-1-1.4-2.1-1.4-3.4c0-1.3,0.5-2.4,1.4-3.4C437.2,9.6,438.3,9.1,439.6,9.1"/>
<path class="st0" d="M461.8,26.6v9.5l0.5-0.7c4-6.4,7.9-9.6,11.9-9.6c3.1,0,6.3,1.6,9.7,4.7l-4.3,7.2c-2.9-2.7-5.5-4.1-7.9-4.1
	c-2.6,0-4.9,1.3-6.9,3.8c-1.9,2.5-2.9,5.5-2.9,9V68h-8.2V26.6H461.8z"/>
<polygon class="st0" points="544.9,26.6 553.7,26.6 535.4,68.7 532.8,68.7 520.6,39.8 508.5,68.7 505.8,68.7 487.4,26.6 496.2,26.6 
	507,51.7 517.6,26.6 523.7,26.6 534.1,51.7 "/>
<path class="st0" d="M577.2,59.8V47.5l-5.5,2.1c-2.8,1.1-4.8,2.2-5.9,3.4c-1.2,1.1-1.7,2.5-1.7,4.2s0.5,3.1,1.6,4.2s2.5,1.6,4.3,1.6
	C572.5,63,574.9,61.9,577.2,59.8 M585.2,43.1v17.6c0,1.4,0.5,2.1,1.4,2.1c1,0,2.5-0.7,4.6-2.2v5c-1.9,1.2-3.4,2-4.5,2.5
	c-1.1,0.4-2.3,0.7-3.5,0.7c-3.5,0-5.6-1.4-6.2-4.1c-3.5,2.7-7.2,4.1-11.1,4.1c-2.9,0-5.3-1-7.2-2.9s-2.9-4.3-2.9-7.2
	c0-2.6,0.9-4.9,2.8-7c1.9-2.1,4.5-3.7,8-4.9l10.5-3.6V41c0-5-2.5-7.5-7.5-7.5c-4.5,0-8.8,2.3-13.1,6.9v-9c3.2-3.8,7.8-5.6,13.7-5.6
	c4.5,0,8.1,1.2,10.8,3.5c0.9,0.8,1.7,1.7,2.4,3c0.7,1.2,1.2,2.5,1.4,3.7C585.1,37.2,585.2,39.6,585.2,43.1"/>
<polygon class="st0" points="620.1,26.6 629.3,26.6 599.9,89.1 590.8,89.1 604.8,59.1 588.8,26.6 598.2,26.6 609.4,50 "/>
<path class="st0" d="M631.7,65v-8.8c2.3,1.6,4.7,2.9,7.1,3.9c2.4,1,4.5,1.5,6.1,1.5c1.7,0,3.2-0.4,4.4-1.3c1.2-0.8,1.8-1.8,1.8-3
	s-0.4-2.2-1.2-3s-2.5-1.9-5.2-3.4c-5.3-2.9-8.7-5.5-10.4-7.5c-1.6-2.1-2.5-4.4-2.5-6.8c0-3.2,1.2-5.8,3.7-7.8s5.7-3,9.6-3
	c4.1,0,8.2,1.1,12.5,3.4v8.1c-4.9-2.9-8.8-4.4-11.9-4.4c-1.6,0-2.9,0.3-3.9,1s-1.5,1.6-1.5,2.7c0,1,0.4,1.9,1.3,2.8
	c0.9,0.9,2.4,1.9,4.7,3.1l2.9,1.7c6.9,3.9,10.4,8.2,10.4,13c0,3.4-1.3,6.2-4,8.4c-2.7,2.2-6.1,3.3-10.2,3.3c-2.5,0-4.7-0.3-6.6-0.8
	C637.1,67.4,634.7,66.4,631.7,65"/>
<path class="st1" d="M345.1,4.7c-7.4,0-14.5,2.9-19.7,8.1L269.9,68h19.8l34.6-34.3l11-10.9c2.6-2.6,6.1-4.1,9.9-4.1h15l-6,14
	l-6.4,15.1l-2.7,6.3l-6,14h15.2l27-63.3h-36.2V4.7z"/>
<path class="st2" d="M289.7,68l44.4,18.9c3.5,1.5,7.2,2.2,10.9,2.2h15.1L339,68H289.7z"/>
</svg>
