<?xml version="1.0" encoding="utf-8"?>
<!-- Generator: Adobe Illustrator 21.1.0, SVG Export Plug-In . SVG Version: 6.00 Build 0)  -->
<svg version="1.1" id="Layer_1" xmlns="http://www.w3.org/2000/svg" xmlns:xlink="http://www.w3.org/1999/xlink" x="0px" y="0px"
	 viewBox="0 0 440 450" style="enable-background:new 0 0 440 450;" xml:space="preserve">
<style type="text/css">
	.st0{fill:#0684C2;}
	.st1{opacity:0.4;fill:#0684C2;enable-background:new    ;}
	.st2{opacity:0.7;fill:#0684C2;enable-background:new    ;}
</style>
<path class="st0" d="M183.9,13.6c-43.2,7.5-84.3,27.2-117.3,60.8c-39.5,40-59.7,92.3-61.3,144.6L80,207.8
	c3.7-30.6,17.2-58.2,37.3-79.5C131,92.7,152.2,50.2,183.9,13.6z"/>
<path class="st1" d="M297.9,107.4c25-6.9,55.5-13.1,90.9-15.4c-5.3-6.9-11.2-13.9-18.1-20.3C326.4,28.5,268.8,8.3,211.1,10.4
	c-28.3,28.3-49.1,62-63.8,93.8C168.5,91.4,193.4,84,220,84C248.8,84,275.5,92.6,297.9,107.4z"/>
<path class="st2" d="M361,225c0,18.3-3.5,35.7-9.8,51.7c20.9,10.6,42.6,23.3,64.2,37.7c29.9-65.6,25.1-142.9-14.4-204.8
	c-32.3,1.9-60.7,6.3-85,12.2C343.7,147.5,361,184.2,361,225z"/>
<path class="st0" d="M238.4,364.8l-9.7,75c52.8-2.1,104.5-23.5,144.6-64c13.3-13.9,24.5-28.8,33.6-44.8
	c-21.1-14.9-42.7-27.2-63.5-37.7C322.2,331.6,283.7,358.9,238.4,364.8z"/>
<circle id="XMLID_36_" class="st0" cx="220" cy="225" r="76.8"/>
</svg>
